<svg xmlns="http://www.w3.org/2000/svg" width="36" height="36" viewBox="0 0 36 36">
  <path d="M12.281 3.221A6.711 6.711 0 0 1 17.997 0a6.711 6.711 0 0 1 5.715 3.221l2.713 4.407 1.898-1.114a1.66 1.66 0 0 1 1.87.121c.541.422.78 1.136.605 1.807l-1.645 6.243a1.687 1.687 0 0 1-2.067 1.214l-6.144-1.671a1.704 1.704 0 0 1-1.237-1.429 1.716 1.716 0 0 1 .83-1.707l1.996-1.171-2.636-4.278a2.23 2.23 0 0 0-1.898-1.072 2.23 2.23 0 0 0-1.899 1.072l-1.23 2a2.226 2.226 0 0 1-3.065.75 2.309 2.309 0 0 1-.752-3.172l1.23-2Zm17.912 14.77a2.226 2.226 0 0 1 3.065.75l1.715 2.793A6.998 6.998 0 0 1 36 25.12c.021 3.793-3.002 6.885-6.735 6.885l-6.77-.007v2.286a1.71 1.71 0 0 1-1.04 1.585 1.67 1.67 0 0 1-1.842-.371l-4.499-4.571a1.726 1.726 0 0 1 0-2.421l4.5-4.572a1.67 1.67 0 0 1 1.841-.371c.633.264 1.04.893 1.04 1.585v2.286h6.763c1.238 0 2.243-1.028 2.236-2.286 0-.42-.12-.835-.338-1.192l-1.715-2.793c-.668-1.086-.33-2.514.752-3.171Zm-25.63-2.213L2.53 14.585a1.722 1.722 0 0 1-.83-1.707 1.704 1.704 0 0 1 1.238-1.429l6.144-1.671c.9-.243 1.827.3 2.066 1.214l1.645 6.236a1.74 1.74 0 0 1-.604 1.807 1.647 1.647 0 0 1-1.87.121l-1.863-1.093-3.62 5.886a2.297 2.297 0 0 0-.338 1.192c-.007 1.257.998 2.286 2.236 2.286h2.263c1.245 0 2.25 1.021 2.25 2.285 0 1.265-1.005 2.286-2.25 2.286H6.735c-3.733 0-6.756-3.085-6.735-6.885a6.865 6.865 0 0 1 1.026-3.586l3.536-5.75Z"/>
</svg>
