<svg xmlns="http://www.w3.org/2000/svg" width="32" height="32" viewBox="0 0 32 32">
  <path d="M6.777 21.17v-.007a1.453 1.453 0 0 0-2.897.17v4.004l.007.2v.005a2.787 2.787 0 0 0 2.78 2.578h5.34l.156-.01h.007a1.453 1.453 0 0 0-.17-2.897H6.787v-3.887l-.01-.156Zm19.89-6.623H5.326l-.156.01v-.001h-.007a1.453 1.453 0 0 0 .17 2.897h21.341l.156-.01v.001h.007a1.454 1.454 0 0 0-.17-2.897Zm1.027 5.759a1.453 1.453 0 0 0-2.48 1.027v3.88H20a1.454 1.454 0 0 0 0 2.907h5.333a2.787 2.787 0 0 0 2.787-2.787v-4a1.45 1.45 0 0 0-.426-1.027Zm-14.666-16A1.454 1.454 0 0 0 12 3.88H6.667A2.787 2.787 0 0 0 3.88 6.667v4a1.453 1.453 0 0 0 2.907 0v-3.88H12a1.454 1.454 0 0 0 1.028-2.481Zm14.276.39a2.787 2.787 0 0 0-1.97-.816H20a1.454 1.454 0 0 0 0 2.907h5.213v3.88a1.453 1.453 0 0 0 2.907 0v-4c0-.74-.294-1.448-.816-1.97Z"/>
</svg>
